# Blender v2.74 (sub 0) OBJ File: 'coin.blend'
# www.blender.org
mtllib coin.mtl
o Torus
v 1.238953 0.000000 0.000000
v 1.216506 0.125000 0.000000
v -0.000000 0.216506 -0.000000
v 1.216506 -0.125000 0.000000
v 1.228354 0.000000 -0.161716
v 1.206099 0.125000 -0.158786
v 1.206099 -0.125000 -0.158786
v 1.196737 0.000000 -0.320665
v 1.175055 0.125000 -0.314855
v 1.175055 -0.125000 -0.314855
v 1.144644 0.000000 -0.474127
v 1.123905 0.125000 -0.465537
v 1.123905 -0.125000 -0.465537
v 1.072965 0.000000 -0.619477
v 1.053525 0.125000 -0.608253
v 1.053525 -0.125000 -0.608253
v 0.982928 0.000000 -0.754227
v 0.965119 0.125000 -0.740562
v 0.965119 -0.125000 -0.740562
v 0.876072 0.000000 -0.876072
v 0.860200 0.125000 -0.860200
v 0.860200 -0.125000 -0.860200
v 0.754227 0.000000 -0.982927
v 0.740562 0.125000 -0.965119
v 0.740562 -0.125000 -0.965119
v 0.619477 0.000000 -1.072965
v 0.608253 0.125000 -1.053525
v 0.608253 -0.125000 -1.053525
v 0.474127 0.000000 -1.144643
v 0.465537 0.125000 -1.123905
v 0.465537 -0.125000 -1.123905
v 0.320665 0.000000 -1.196737
v 0.314855 0.125000 -1.175055
v 0.314855 -0.125000 -1.175055
v 0.161716 0.000000 -1.228354
v 0.158786 0.125000 -1.206099
v 0.158786 -0.125000 -1.206099
v 0.000000 0.000000 -1.238953
v 0.000000 0.125000 -1.216506
v 0.000000 -0.125000 -1.216506
v -0.161716 0.000000 -1.228354
v -0.158786 0.125000 -1.206099
v -0.158786 -0.125000 -1.206099
v -0.320665 0.000000 -1.196737
v -0.314855 0.125000 -1.175055
v -0.314855 -0.125000 -1.175055
v -0.474127 0.000000 -1.144643
v -0.465537 0.125000 -1.123905
v -0.465537 -0.125000 -1.123905
v -0.619476 0.000000 -1.072965
v -0.608253 0.125000 -1.053525
v -0.608253 -0.125000 -1.053525
v -0.754227 0.000000 -0.982928
v -0.740562 0.125000 -0.965119
v -0.740562 -0.125000 -0.965119
v -0.876072 0.000000 -0.876072
v -0.860200 0.125000 -0.860200
v -0.860200 -0.125000 -0.860200
v -0.982928 0.000000 -0.754227
v -0.965119 0.125000 -0.740562
v -0.965119 -0.125000 -0.740562
v -1.072965 0.000000 -0.619477
v -1.053525 0.125000 -0.608253
v -1.053525 -0.125000 -0.608253
v -1.144643 0.000000 -0.474127
v -1.123905 0.125000 -0.465537
v -1.123905 -0.125000 -0.465537
v -1.196737 0.000000 -0.320665
v -1.175055 0.125000 -0.314855
v -1.175055 -0.125000 -0.314855
v -1.228354 0.000000 -0.161716
v -1.206099 0.125000 -0.158786
v -1.206099 -0.125000 -0.158786
v -1.238953 0.000000 -0.000000
v -1.216506 0.125000 -0.000000
v -1.216506 -0.125000 -0.000000
v -1.228354 0.000000 0.161716
v -1.206099 0.125000 0.158786
v -1.206099 -0.125000 0.158786
v -1.196737 0.000000 0.320664
v -1.175055 0.125000 0.314855
v -1.175055 -0.125000 0.314855
v -1.144644 0.000000 0.474126
v -1.123906 0.125000 0.465536
v -1.123906 -0.125000 0.465536
v -1.072965 0.000000 0.619476
v -1.053526 0.125000 0.608253
v -1.053526 -0.125000 0.608253
v -0.982928 0.000000 0.754227
v -0.965119 0.125000 0.740562
v -0.965119 -0.125000 0.740562
v -0.876072 0.000000 0.876072
v -0.860200 0.125000 0.860200
v -0.860200 -0.125000 0.860200
v -0.754227 0.000000 0.982927
v -0.740563 0.125000 0.965119
v -0.740563 -0.125000 0.965119
v -0.619477 0.000000 1.072965
v -0.608253 0.125000 1.053525
v -0.608253 -0.125000 1.053525
v -0.474127 0.000000 1.144643
v -0.465537 0.125000 1.123905
v -0.465537 -0.125000 1.123905
v -0.320665 0.000000 1.196737
v -0.314855 0.125000 1.175055
v -0.314855 -0.125000 1.175055
v -0.161716 0.000000 1.228354
v -0.158787 0.125000 1.206099
v -0.158787 -0.125000 1.206099
v -0.000000 0.000000 1.238953
v 0.000000 0.125000 1.216506
v 0.000000 -0.125000 1.216506
v 0.161716 0.000000 1.228354
v 0.158786 0.125000 1.206099
v 0.158786 -0.125000 1.206099
v 0.320664 0.000000 1.196737
v 0.314854 0.125000 1.175055
v 0.314854 -0.125000 1.175055
v 0.474127 0.000000 1.144643
v 0.465537 0.125000 1.123905
v 0.465537 -0.125000 1.123905
v 0.619477 0.000000 1.072965
v 0.608253 0.125000 1.053525
v 0.608253 -0.125000 1.053525
v 0.754227 0.000000 0.982928
v 0.740562 0.125000 0.965120
v 0.740562 -0.125000 0.965120
v 0.876072 0.000000 0.876073
v 0.860199 0.125000 0.860200
v 0.860199 -0.125000 0.860200
v 0.982928 0.000000 0.754227
v 0.965119 0.125000 0.740562
v 0.965119 -0.125000 0.740562
v 1.072965 0.000000 0.619477
v 1.053525 0.125000 0.608253
v 1.053525 -0.125000 0.608253
v 1.144643 0.000000 0.474127
v 1.123905 0.125000 0.465537
v 1.123905 -0.125000 0.465537
v 1.196737 0.000000 0.320664
v 1.175055 0.125000 0.314855
v 1.175055 -0.125000 0.314855
v 1.228354 0.000000 0.161716
v 1.206099 0.125000 0.158786
v 1.206099 -0.125000 0.158786
v -0.000000 -0.125000 0.000000
vt 0.990014 0.500000
vt 0.985821 0.564720
vt 0.987130 0.564895
vt 0.991334 0.500000
vt 0.971353 0.500000
vt 0.967320 0.562256
vt 0.973317 0.628333
vt 0.974592 0.628679
vt 0.955292 0.623446
vt 0.952714 0.689750
vt 0.953933 0.690261
vt 0.935474 0.682524
vt 0.924364 0.747921
vt 0.925507 0.748589
vt 0.908203 0.738480
vt 0.888754 0.801849
vt 0.889801 0.802663
vt 0.873949 0.790354
vt 0.846492 0.850613
vt 0.847425 0.851558
vt 0.833297 0.837261
vt 0.798301 0.893378
vt 0.799105 0.894438
vt 0.786941 0.878397
vt 0.745007 0.929412
vt 0.745667 0.930569
vt 0.735676 0.913059
vt 0.687520 0.958098
vt 0.688025 0.959332
vt 0.680379 0.940653
vt 0.626825 0.978947
vt 0.627166 0.980237
vt 0.621995 0.960707
vt 0.563960 0.991600
vt 0.564132 0.992924
vt 0.561524 0.972879
vt 0.500000 0.995842
vt 0.500000 0.997178
vt 0.500000 0.976959
vt 0.436040 0.991600
vt 0.435868 0.992924
vt 0.438476 0.972879
vt 0.373175 0.978947
vt 0.372834 0.980237
vt 0.378005 0.960707
vt 0.312480 0.958098
vt 0.311975 0.959332
vt 0.319621 0.940653
vt 0.254993 0.929412
vt 0.254333 0.930569
vt 0.264324 0.913059
vt 0.201699 0.893378
vt 0.200895 0.894438
vt 0.213059 0.878397
vt 0.153508 0.850613
vt 0.152575 0.851558
vt 0.166703 0.837261
vt 0.111246 0.801849
vt 0.110199 0.802663
vt 0.126051 0.790354
vt 0.075636 0.747921
vt 0.074493 0.748589
vt 0.091797 0.738480
vt 0.047286 0.689750
vt 0.046067 0.690262
vt 0.064527 0.682524
vt 0.026683 0.628333
vt 0.025408 0.628679
vt 0.044708 0.623446
vt 0.014179 0.564720
vt 0.012870 0.564895
vt 0.032680 0.562256
vt 0.009986 0.500000
vt 0.008666 0.500000
vt 0.028647 0.500000
vt 0.014179 0.435280
vt 0.012870 0.435105
vt 0.032680 0.437744
vt 0.026683 0.371667
vt 0.025408 0.371321
vt 0.044708 0.376554
vt 0.047286 0.310250
vt 0.046067 0.309738
vt 0.064527 0.317476
vt 0.075636 0.252079
vt 0.074493 0.251411
vt 0.091796 0.261521
vt 0.111246 0.198150
vt 0.110199 0.197337
vt 0.126051 0.209646
vt 0.153508 0.149387
vt 0.152575 0.148442
vt 0.166703 0.162739
vt 0.201699 0.106622
vt 0.200895 0.105562
vt 0.213058 0.121603
vt 0.254993 0.070588
vt 0.254333 0.069431
vt 0.264324 0.086941
vt 0.312480 0.041902
vt 0.311975 0.040668
vt 0.319621 0.059347
vt 0.373175 0.021053
vt 0.372833 0.019763
vt 0.378005 0.039293
vt 0.436040 0.008400
vt 0.435868 0.007076
vt 0.438476 0.027121
vt 0.500000 0.004158
vt 0.500000 0.002822
vt 0.500000 0.023041
vt 0.563960 0.008400
vt 0.564132 0.007076
vt 0.561524 0.027121
vt 0.626825 0.021053
vt 0.627166 0.019763
vt 0.621995 0.039293
vt 0.687520 0.041902
vt 0.688025 0.040668
vt 0.680379 0.059347
vt 0.745007 0.070588
vt 0.745667 0.069431
vt 0.735676 0.086941
vt 0.798301 0.106622
vt 0.799105 0.105562
vt 0.786941 0.121603
vt 0.846492 0.149387
vt 0.847425 0.148442
vt 0.974592 0.371321
vt 0.987130 0.435105
vt 0.500000 0.500000
vt 0.953933 0.309738
vt 0.925507 0.251411
vt 0.889801 0.197337
vt 0.833297 0.162739
vt 0.888754 0.198150
vt 0.873949 0.209646
vt 0.924364 0.252079
vt 0.908203 0.261520
vt 0.952713 0.310249
vt 0.935473 0.317475
vt 0.973317 0.371667
vt 0.955292 0.376554
vt 0.985821 0.435280
vt 0.967320 0.437744
vn 0.982200 0.176400 -0.064400
vn 0.982200 -0.176400 -0.064400
vn 0.965400 0.176400 -0.192000
vn 0.965400 -0.176400 -0.192000
vn 0.932100 0.176400 -0.316400
vn 0.932100 -0.176400 -0.316400
vn 0.882800 0.176400 -0.435400
vn 0.882800 -0.176400 -0.435400
vn 0.818400 0.176400 -0.546900
vn 0.818400 -0.176400 -0.546900
vn 0.740100 0.176400 -0.649000
vn 0.740100 -0.176400 -0.649000
vn 0.649000 0.176400 -0.740100
vn 0.649000 -0.176400 -0.740100
vn 0.546900 0.176400 -0.818400
vn 0.546900 -0.176400 -0.818400
vn 0.435400 0.176400 -0.882800
vn 0.435400 -0.176400 -0.882800
vn 0.316400 0.176400 -0.932100
vn 0.316400 -0.176400 -0.932100
vn 0.192000 0.176400 -0.965400
vn 0.192000 -0.176400 -0.965400
vn 0.064400 0.176400 -0.982200
vn 0.064400 -0.176400 -0.982200
vn -0.064400 0.176400 -0.982200
vn -0.064400 -0.176400 -0.982200
vn -0.192000 0.176400 -0.965400
vn -0.192000 -0.176400 -0.965400
vn -0.316400 0.176400 -0.932100
vn -0.316400 -0.176400 -0.932100
vn -0.435400 0.176400 -0.882800
vn -0.435400 -0.176400 -0.882800
vn -0.546900 0.176400 -0.818400
vn -0.546900 -0.176400 -0.818400
vn -0.649000 0.176400 -0.740100
vn -0.649000 -0.176400 -0.740100
vn -0.740100 0.176400 -0.649000
vn -0.740100 -0.176400 -0.649000
vn -0.818400 0.176400 -0.546900
vn -0.818400 -0.176400 -0.546900
vn -0.882800 0.176400 -0.435400
vn -0.882800 -0.176400 -0.435400
vn -0.932100 0.176400 -0.316400
vn -0.932100 -0.176400 -0.316400
vn -0.965400 0.176400 -0.192000
vn -0.965400 -0.176400 -0.192000
vn -0.982200 0.176400 -0.064400
vn -0.982200 -0.176400 -0.064400
vn -0.982200 0.176400 0.064400
vn -0.982200 -0.176400 0.064400
vn -0.965400 0.176400 0.192000
vn -0.965400 -0.176400 0.192000
vn -0.932100 0.176400 0.316400
vn -0.932100 -0.176400 0.316400
vn -0.882800 0.176400 0.435400
vn -0.882800 -0.176400 0.435400
vn -0.818400 0.176400 0.546900
vn -0.818400 -0.176400 0.546900
vn -0.740100 0.176400 0.649000
vn -0.740100 -0.176400 0.649000
vn -0.649000 0.176400 0.740100
vn -0.649000 -0.176400 0.740100
vn -0.546900 0.176400 0.818400
vn -0.546900 -0.176400 0.818400
vn -0.435400 0.176400 0.882800
vn -0.435400 -0.176400 0.882800
vn -0.316400 0.176400 0.932100
vn -0.316400 -0.176400 0.932100
vn -0.192000 0.176400 0.965400
vn -0.192000 -0.176400 0.965400
vn -0.064400 0.176400 0.982200
vn -0.064400 -0.176400 0.982200
vn 0.064400 0.176400 0.982200
vn 0.064400 -0.176400 0.982200
vn 0.192000 0.176400 0.965400
vn 0.192000 -0.176400 0.965400
vn 0.316400 0.176400 0.932100
vn 0.316400 -0.176400 0.932100
vn 0.435400 0.176400 0.882800
vn 0.435400 -0.176400 0.882800
vn 0.546900 0.176400 0.818400
vn 0.546900 -0.176400 0.818400
vn 0.649000 0.176400 0.740100
vn 0.073700 0.997200 0.014700
vn 0.075000 0.997200 0.004900
vn 0.071200 0.997200 0.024200
vn 0.067400 0.997200 0.033200
vn 0.062500 0.997200 0.041800
vn 0.056500 0.997200 0.049600
vn 0.049600 0.997200 0.056500
vn 0.041800 0.997200 0.062500
vn 0.649000 -0.176400 0.740100
vn 0.740100 0.176400 0.649000
vn 0.024200 0.997200 0.071200
vn 0.033200 0.997200 0.067400
vn 0.014700 0.997200 0.073700
vn 0.004900 0.997200 0.075000
vn -0.004900 0.997200 0.075000
vn -0.014700 0.997200 0.073700
vn -0.024200 0.997200 0.071200
vn -0.033200 0.997200 0.067400
vn 0.740100 -0.176400 0.649000
vn 0.818400 0.176400 0.546900
vn -0.041800 0.997200 0.062500
vn -0.049600 0.997200 0.056500
vn -0.056500 0.997200 0.049600
vn -0.062500 0.997200 0.041800
vn -0.067400 0.997200 0.033200
vn -0.071200 0.997200 0.024200
vn -0.073700 0.997200 0.014700
vn -0.075000 0.997200 0.004900
vn 0.818400 -0.176400 0.546900
vn 0.882800 0.176400 0.435400
vn -0.073700 0.997200 -0.014700
vn -0.075000 0.997200 -0.004900
vn -0.071200 0.997200 -0.024200
vn -0.067400 0.997200 -0.033200
vn -0.062500 0.997200 -0.041800
vn -0.056500 0.997200 -0.049600
vn -0.049600 0.997200 -0.056500
vn -0.041800 0.997200 -0.062500
vn 0.882800 -0.176400 0.435400
vn 0.932100 0.176400 0.316400
vn -0.024200 0.997200 -0.071200
vn -0.033200 0.997200 -0.067400
vn -0.014700 0.997200 -0.073700
vn -0.004900 0.997200 -0.075000
vn 0.004900 0.997200 -0.075000
vn 0.014700 0.997200 -0.073700
vn 0.024200 0.997200 -0.071200
vn 0.033200 0.997200 -0.067400
vn 0.932100 -0.176400 0.316400
vn 0.965400 0.176400 0.192000
vn 0.041800 0.997200 -0.062500
vn 0.049600 0.997200 -0.056500
vn 0.056500 0.997200 -0.049600
vn 0.062500 0.997200 -0.041800
vn 0.067400 0.997200 -0.033200
vn 0.071200 0.997200 -0.024200
vn 0.073700 0.997200 -0.014700
vn 0.075000 0.997200 -0.004900
vn 0.965400 -0.176400 0.192000
vn 0.982200 0.176400 0.064400
vn 0.982200 -0.176400 0.064400
vn 0.000000 -1.000000 0.000000
usemtl Material.001
s off
f 1/1/1 5/2/1 6/3/1 2/4/1
f 1/1/2 4/5/2 7/6/2 5/2/2
f 5/2/3 8/7/3 9/8/3 6/3/3
f 7/6/4 10/9/4 8/7/4 5/2/4
f 8/7/5 11/10/5 12/11/5 9/8/5
f 10/9/6 13/12/6 11/10/6 8/7/6
f 11/10/7 14/13/7 15/14/7 12/11/7
f 13/12/8 16/15/8 14/13/8 11/10/8
f 14/13/9 17/16/9 18/17/9 15/14/9
f 16/15/10 19/18/10 17/16/10 14/13/10
f 17/16/11 20/19/11 21/20/11 18/17/11
f 19/18/12 22/21/12 20/19/12 17/16/12
f 20/19/13 23/22/13 24/23/13 21/20/13
f 22/21/14 25/24/14 23/22/14 20/19/14
f 23/22/15 26/25/15 27/26/15 24/23/15
f 25/24/16 28/27/16 26/25/16 23/22/16
f 26/25/17 29/28/17 30/29/17 27/26/17
f 28/27/18 31/30/18 29/28/18 26/25/18
f 29/28/19 32/31/19 33/32/19 30/29/19
f 31/30/20 34/33/20 32/31/20 29/28/20
f 32/31/21 35/34/21 36/35/21 33/32/21
f 34/33/22 37/36/22 35/34/22 32/31/22
f 35/34/23 38/37/23 39/38/23 36/35/23
f 37/36/24 40/39/24 38/37/24 35/34/24
f 38/37/25 41/40/25 42/41/25 39/38/25
f 40/39/26 43/42/26 41/40/26 38/37/26
f 41/40/27 44/43/27 45/44/27 42/41/27
f 43/42/28 46/45/28 44/43/28 41/40/28
f 44/43/29 47/46/29 48/47/29 45/44/29
f 46/45/30 49/48/30 47/46/30 44/43/30
f 47/46/31 50/49/31 51/50/31 48/47/31
f 49/48/32 52/51/32 50/49/32 47/46/32
f 50/49/33 53/52/33 54/53/33 51/50/33
f 52/51/34 55/54/34 53/52/34 50/49/34
f 53/52/35 56/55/35 57/56/35 54/53/35
f 55/54/36 58/57/36 56/55/36 53/52/36
f 56/55/37 59/58/37 60/59/37 57/56/37
f 58/57/38 61/60/38 59/58/38 56/55/38
f 59/58/39 62/61/39 63/62/39 60/59/39
f 61/60/40 64/63/40 62/61/40 59/58/40
f 62/61/41 65/64/41 66/65/41 63/62/41
f 64/63/42 67/66/42 65/64/42 62/61/42
f 65/64/43 68/67/43 69/68/43 66/65/43
f 67/66/44 70/69/44 68/67/44 65/64/44
f 68/67/45 71/70/45 72/71/45 69/68/45
f 70/69/46 73/72/46 71/70/46 68/67/46
f 71/70/47 74/73/47 75/74/47 72/71/47
f 73/72/48 76/75/48 74/73/48 71/70/48
f 74/73/49 77/76/49 78/77/49 75/74/49
f 76/75/50 79/78/50 77/76/50 74/73/50
f 77/76/51 80/79/51 81/80/51 78/77/51
f 79/78/52 82/81/52 80/79/52 77/76/52
f 80/79/53 83/82/53 84/83/53 81/80/53
f 82/81/54 85/84/54 83/82/54 80/79/54
f 83/82/55 86/85/55 87/86/55 84/83/55
f 85/84/56 88/87/56 86/85/56 83/82/56
f 86/85/57 89/88/57 90/89/57 87/86/57
f 88/87/58 91/90/58 89/88/58 86/85/58
f 89/88/59 92/91/59 93/92/59 90/89/59
f 91/90/60 94/93/60 92/91/60 89/88/60
f 92/91/61 95/94/61 96/95/61 93/92/61
f 94/93/62 97/96/62 95/94/62 92/91/62
f 95/94/63 98/97/63 99/98/63 96/95/63
f 97/96/64 100/99/64 98/97/64 95/94/64
f 98/97/65 101/100/65 102/101/65 99/98/65
f 100/99/66 103/102/66 101/100/66 98/97/66
f 101/100/67 104/103/67 105/104/67 102/101/67
f 103/102/68 106/105/68 104/103/68 101/100/68
f 104/103/69 107/106/69 108/107/69 105/104/69
f 106/105/70 109/108/70 107/106/70 104/103/70
f 107/106/71 110/109/71 111/110/71 108/107/71
f 109/108/72 112/111/72 110/109/72 107/106/72
f 110/109/73 113/112/73 114/113/73 111/110/73
f 112/111/74 115/114/74 113/112/74 110/109/74
f 113/112/75 116/115/75 117/116/75 114/113/75
f 115/114/76 118/117/76 116/115/76 113/112/76
f 116/115/77 119/118/77 120/119/77 117/116/77
f 118/117/78 121/120/78 119/118/78 116/115/78
f 119/118/79 122/121/79 123/122/79 120/119/79
f 121/120/80 124/123/80 122/121/80 119/118/80
f 122/121/81 125/124/81 126/125/81 123/122/81
f 124/123/82 127/126/82 125/124/82 122/121/82
f 125/124/83 128/127/83 129/128/83 126/125/83
f 141/129/84 144/130/84 3/131/84
f 144/130/85 2/4/85 3/131/85
f 138/132/86 141/129/86 3/131/86
f 135/133/87 138/132/87 3/131/87
f 132/134/88 135/133/88 3/131/88
f 129/128/89 132/134/89 3/131/89
f 126/125/90 129/128/90 3/131/90
f 123/122/91 126/125/91 3/131/91
f 127/126/92 130/135/92 128/127/92 125/124/92
f 128/127/93 131/136/93 132/134/93 129/128/93
f 117/116/94 120/119/94 3/131/94
f 120/119/95 123/122/95 3/131/95
f 114/113/96 117/116/96 3/131/96
f 111/110/97 114/113/97 3/131/97
f 108/107/98 111/110/98 3/131/98
f 105/104/99 108/107/99 3/131/99
f 102/101/100 105/104/100 3/131/100
f 99/98/101 102/101/101 3/131/101
f 130/135/102 133/137/102 131/136/102 128/127/102
f 131/136/103 134/138/103 135/133/103 132/134/103
f 96/95/104 99/98/104 3/131/104
f 93/92/105 96/95/105 3/131/105
f 90/89/106 93/92/106 3/131/106
f 87/86/107 90/89/107 3/131/107
f 84/83/108 87/86/108 3/131/108
f 81/80/109 84/83/109 3/131/109
f 78/77/110 81/80/110 3/131/110
f 75/74/111 78/77/111 3/131/111
f 133/137/112 136/139/112 134/138/112 131/136/112
f 134/138/113 137/140/113 138/132/113 135/133/113
f 69/68/114 72/71/114 3/131/114
f 72/71/115 75/74/115 3/131/115
f 66/65/116 69/68/116 3/131/116
f 63/62/117 66/65/117 3/131/117
f 60/59/118 63/62/118 3/131/118
f 57/56/119 60/59/119 3/131/119
f 54/53/120 57/56/120 3/131/120
f 51/50/121 54/53/121 3/131/121
f 136/139/122 139/141/122 137/140/122 134/138/122
f 137/140/123 140/142/123 141/129/123 138/132/123
f 45/44/124 48/47/124 3/131/124
f 48/47/125 51/50/125 3/131/125
f 42/41/126 45/44/126 3/131/126
f 39/38/127 42/41/127 3/131/127
f 36/35/128 39/38/128 3/131/128
f 33/32/129 36/35/129 3/131/129
f 30/29/130 33/32/130 3/131/130
f 27/26/131 30/29/131 3/131/131
f 139/141/132 142/143/132 140/142/132 137/140/132
f 140/142/133 143/144/133 144/130/133 141/129/133
f 24/23/134 27/26/134 3/131/134
f 21/20/135 24/23/135 3/131/135
f 18/17/136 21/20/136 3/131/136
f 15/14/137 18/17/137 3/131/137
f 12/11/138 15/14/138 3/131/138
f 9/8/139 12/11/139 3/131/139
f 6/3/140 9/8/140 3/131/140
f 2/4/141 6/3/141 3/131/141
f 142/143/142 145/145/142 143/144/142 140/142/142
f 143/144/143 1/1/143 2/4/143 144/130/143
f 145/145/144 4/5/144 1/1/144 143/144/144
f 133/137/145 130/135/145 146/131/145
f 79/78/145 76/75/145 146/131/145
f 7/6/145 4/5/145 146/131/145
f 85/84/145 82/81/145 146/131/145
f 118/117/145 115/114/145 146/131/145
f 22/21/145 19/18/145 146/131/145
f 112/111/145 109/108/145 146/131/145
f 82/81/145 79/78/145 146/131/145
f 4/5/145 145/145/145 146/131/145
f 61/60/145 58/57/145 146/131/145
f 130/135/145 127/126/145 146/131/145
f 13/12/145 10/9/145 146/131/145
f 106/105/145 103/102/145 146/131/145
f 70/69/145 67/66/145 146/131/145
f 94/93/145 91/90/145 146/131/145
f 37/36/145 34/33/145 146/131/145
f 31/30/145 28/27/145 146/131/145
f 103/102/145 100/99/145 146/131/145
f 73/72/145 70/69/145 146/131/145
f 28/27/145 25/24/145 146/131/145
f 52/51/145 49/48/145 146/131/145
f 109/108/145 106/105/145 146/131/145
f 145/145/145 142/143/145 146/131/145
f 115/114/145 112/111/145 146/131/145
f 19/18/145 16/15/145 146/131/145
f 64/63/145 61/60/145 146/131/145
f 10/9/145 7/6/145 146/131/145
f 88/87/145 85/84/145 146/131/145
f 67/66/145 64/63/145 146/131/145
f 97/96/145 94/93/145 146/131/145
f 43/42/145 40/39/145 146/131/145
f 136/139/145 133/137/145 146/131/145
f 121/120/145 118/117/145 146/131/145
f 100/99/145 97/96/145 146/131/145
f 40/39/145 37/36/145 146/131/145
f 58/57/145 55/54/145 146/131/145
f 55/54/145 52/51/145 146/131/145
f 142/143/145 139/141/145 146/131/145
f 16/15/145 13/12/145 146/131/145
f 49/48/145 46/45/145 146/131/145
f 91/90/145 88/87/145 146/131/145
f 127/126/145 124/123/145 146/131/145
f 76/75/145 73/72/145 146/131/145
f 34/33/145 31/30/145 146/131/145
f 139/141/145 136/139/145 146/131/145
f 25/24/145 22/21/145 146/131/145
f 124/123/145 121/120/145 146/131/145
f 46/45/145 43/42/145 146/131/145
