# Blender v2.74 (sub 0) OBJ File: 'cube (2).blend'
# www.blender.org
mtllib cub.mtl
o Cube
v 1.000000 -1.000000 -1.000000
v 1.000000 -1.000000 1.000000
v -1.000000 -1.000000 1.000000
v -1.000000 -1.000000 -1.000000
v 1.000000 1.000000 -0.999999
v 0.999999 1.000000 1.000001
v -1.000000 1.000000 1.000000
v -1.000000 1.000000 -1.000000
vt 0.440767 0.712524
vt 0.440690 0.523473
vt 0.629740 0.523396
vt 0.629818 0.712447
vt 0.440535 0.145372
vt 0.629586 0.145295
vt 0.629663 0.334345
vt 0.440613 0.334423
vt 0.440844 0.901574
vt 0.251794 0.901652
vt 0.251717 0.712601
vt 0.818868 0.712369
vt 0.818946 0.901420
vt 0.629895 0.901497
vn 0.000000 -1.000000 0.000000
vn 0.000000 1.000000 0.000000
vn 1.000000 0.000000 0.000000
vn -0.000000 -0.000000 1.000000
vn -1.000000 -0.000000 -0.000000
vn 0.000000 0.000000 -1.000000
usemtl red
s off
f 1/1/1 2/2/1 3/3/1 4/4/1
f 5/5/2 8/6/2 7/7/2 6/8/2
f 1/1/3 5/9/3 6/10/3 2/11/3
f 2/2/4 6/8/4 7/7/4 3/3/4
f 3/12/5 7/13/5 8/14/5 4/4/5
f 5/9/6 1/1/6 4/4/6 8/14/6
