# Blender v2.74 (sub 0) OBJ File: 'stopy.blend'
# www.blender.org
mtllib stopy.mtl
o stopy_Sphere.002
v 4.672375 -11.377492 0.059212
v 3.098379 -12.337296 -1.095342
v 4.251229 -12.279085 -1.089795
v 4.285702 -12.274842 -0.164046
v 3.972918 -10.074278 -0.153263
v 4.071918 -10.504292 1.210188
v 4.141875 -11.700246 -1.365465
v 3.995878 -10.598686 -1.080938
v 4.255062 -11.601283 1.923250
v 4.336532 -12.268590 1.201020
v 2.515511 -11.501968 0.062422
v 3.039249 -12.342384 -0.172105
v 3.145697 -11.748086 -1.364445
v 3.214266 -10.641858 -1.066629
v 2.944836 -11.682277 1.916675
v 2.952058 -12.349887 1.189257
v 3.077124 -10.570564 1.219608
v 4.743578 -12.018421 0.912056
v 4.659220 -11.522278 1.455110
v 4.352719 -10.785353 -0.793372
v 4.517737 -11.603520 -1.009267
v 4.447768 -10.709823 0.923515
v 4.324019 -10.393102 -0.097305
v 4.680040 -12.026239 -0.110783
v 4.636950 -12.031541 -0.804443
v 3.667328 -12.316307 1.201592
v 3.627676 -11.644589 1.923736
v 3.612758 -10.617513 -1.079888
v 3.649595 -11.728244 -1.365239
v 3.620445 -10.529831 1.208045
v 3.620445 -10.088239 -0.158942
v 3.676418 -12.315995 -0.163509
v 3.682583 -12.315784 -1.089281
v 4.218694 -12.135015 -1.298280
v 4.265045 -12.277385 -0.718789
v 4.310448 -12.271799 0.500527
v 4.009707 -10.180301 0.510906
v 3.966619 -10.206861 -0.708488
v 4.155165 -10.995028 1.746873
v 4.055896 -11.134797 -1.292601
v 4.329541 -12.100118 1.740805
v 2.473770 -12.151162 0.898154
v 2.482220 -11.654637 1.447694
v 2.836487 -10.870439 -0.774684
v 2.733297 -11.694439 -1.007190
v 2.533802 -10.611297 1.231172
v 2.803646 -10.165478 -0.107517
v 2.582758 -12.141784 -0.120055
v 2.656672 -12.135422 -0.810574
v 3.119124 -12.189227 -1.301807
v 3.074682 -12.339335 -0.725343
v 2.996801 -12.346037 0.490664
v 3.253346 -10.123304 -0.778088
v 2.983503 -11.010715 1.927589
v 3.177583 -11.177691 -1.285354
v 2.927308 -12.184958 1.729364
v 3.620445 -10.529831 1.208045
v 2.533802 -10.611297 1.231172
v 3.170745 -10.130412 0.511628
v 2.983503 -11.010715 1.927589
v 4.629487 -11.923990 1.472045
v 4.449917 -11.047274 1.478816
v 4.492005 -11.969275 -1.116879
v 4.321698 -11.157586 -1.110419
v 4.267641 -10.352983 0.470258
v 4.214695 -10.387867 -0.580185
v 4.626851 -12.149434 0.456779
v 4.568759 -12.156581 -0.593493
v 3.655023 -12.148460 1.741364
v 3.461210 -10.870849 1.747664
v 3.675265 -12.168867 -1.297842
v 3.622962 -11.156824 -1.292309
v 3.620445 -10.198637 0.506566
v 3.528670 -10.097006 -0.637490
v 3.671993 -12.316146 0.501081
v 3.680112 -12.315868 -0.718266
v 2.568976 -12.047656 1.459166
v 2.552606 -10.930507 1.753524
v 2.808531 -12.054335 -1.120102
v 2.901555 -11.230929 -1.100029
v 2.694885 -10.280486 0.548252
v 2.957372 -10.151381 -0.596256
v 2.634055 -12.262411 0.443942
v 2.733701 -12.253836 -0.602096
v 3.461210 -10.870849 1.747664
v 3.508020 -10.209181 0.674208
v 2.552606 -10.930507 1.753524
v 2.786659 -10.271720 0.703038
v -4.687720 -11.371171 0.060557
v -3.115353 -12.333100 -1.094448
v -4.268122 -12.273333 -1.088570
v -4.302322 -12.269044 -0.162811
v -3.986564 -10.068903 -0.152119
v -4.085752 -10.498784 1.211360
v -4.158066 -11.694642 -1.364272
v -4.010499 -10.593279 -1.079787
v -4.270173 -11.595527 1.924475
v -4.352752 -12.262723 1.202269
v -2.531024 -11.498560 0.063147
v -3.055964 -12.338268 -0.171229
v -3.161952 -11.743827 -1.363539
v -3.228941 -10.637507 -1.065703
v -2.960059 -11.678288 1.917524
v -2.968393 -12.345889 1.190108
v -3.091046 -10.566399 1.220495
v -4.759543 -12.012005 0.913422
v -4.674359 -11.515976 1.456451
v -4.367509 -10.779465 -0.792119
v -4.533694 -11.597407 -1.007966
v -4.461963 -10.703807 0.924795
v -4.338079 -10.387252 -0.096060
v -4.696310 -12.019907 -0.109436
v -4.653426 -12.025268 -0.803108
v -3.683613 -12.311344 1.202648
v -3.642846 -11.639680 1.924781
v -3.627404 -10.612624 -1.078848
v -3.665823 -11.723304 -1.364188
v -3.634315 -10.524933 1.209088
v -3.634112 -10.083341 -0.157900
v -3.693095 -12.311019 -0.162450
v -3.699525 -12.310799 -1.088220
v -4.235452 -12.129307 -1.297065
v -4.281828 -12.271613 -0.717561
v -4.326873 -12.265966 0.501768
v -4.023305 -10.174876 0.512060
v -3.980604 -10.201494 -0.707346
v -4.169508 -10.989407 1.748069
v -4.071302 -11.129310 -1.291432
v -4.345378 -12.094260 1.742051
v -2.489920 -12.147811 0.898867
v -2.497542 -11.651275 1.448410
v -2.851388 -10.866597 -0.773866
v -2.749378 -11.690737 -1.006402
v -2.547777 -10.607865 1.231902
v -2.817404 -10.161682 -0.106709
v -2.599188 -12.138284 -0.119310
v -2.673291 -12.131823 -0.809808
v -3.135957 -12.185002 -1.300908
v -3.091552 -12.335172 -0.724457
v -3.013331 -12.341978 0.491528
v -3.267239 -10.118900 -0.777150
v -2.997816 -11.006676 1.928449
v -3.193045 -11.173389 -1.284438
v -2.943264 -12.180994 1.730207
v -3.634315 -10.524933 1.209087
v -2.547777 -10.607865 1.231902
v -3.184276 -10.126121 0.512541
v -2.997816 -11.006676 1.928449
v -4.645164 -11.917727 1.473378
v -4.464407 -11.041254 1.480097
v -4.508487 -11.963199 -1.115586
v -4.337082 -11.151738 -1.109174
v -4.281483 -10.347210 0.471487
v -4.228887 -10.382166 -0.578972
v -4.643124 -12.143174 0.458111
v -4.585344 -12.150399 -0.592177
v -3.670926 -12.143513 1.742417
v -3.475385 -10.866164 1.748661
v -3.692070 -12.163893 -1.296783
v -3.638397 -11.151920 -1.291265
v -3.634070 -10.193739 0.507609
v -3.542486 -10.092232 -0.636474
v -3.688479 -12.311175 0.502139
v -3.696949 -12.310886 -0.717206
v -2.584825 -12.044175 1.459907
v -2.566862 -10.927051 1.754260
v -2.825130 -12.050529 -1.119292
v -2.917036 -11.227000 -1.099192
v -2.708608 -10.276837 0.549029
v -2.971251 -10.147377 -0.595404
v -2.650486 -12.258842 0.444702
v -2.750421 -12.250132 -0.601308
v -3.475385 -10.866164 1.748660
v -3.521611 -10.204433 0.675218
v -2.566862 -10.927051 1.754260
v -2.800327 -10.267947 0.703841
vt 0.327280 0.459638
vt 0.334835 0.433454
vt 0.369927 0.427428
vt 0.413987 0.455537
vt 0.381608 0.414964
vt 0.404084 0.421221
vt 0.416516 0.408269
vt 0.425550 0.414765
vt 0.437584 0.406180
vt 0.443703 0.418263
vt 0.473002 0.425678
vt 0.484759 0.452441
vt 0.511849 0.491547
vt 0.473921 0.525528
vt 0.430624 0.567628
vt 0.368750 0.530018
vt 0.301127 0.505477
vt 0.444252 0.362698
vt 0.443118 0.377463
vt 0.430903 0.376226
vt 0.432844 0.360849
vt 0.418584 0.374909
vt 0.421360 0.355736
vt 0.421415 0.333031
vt 0.431604 0.323931
vt 0.443938 0.341337
vt 0.429830 0.391263
vt 0.440788 0.391506
vt 0.418263 0.393170
vt 0.399129 0.395406
vt 0.374831 0.398004
vt 0.372139 0.371049
vt 0.398545 0.372469
vt 0.439963 0.629113
vt 0.526205 0.577396
vt 0.561969 0.496957
vt 0.651736 0.483402
vt 0.574666 0.620202
vt 0.450458 0.702271
vt 0.314731 0.597053
vt 0.224853 0.526726
vt 0.256321 0.660364
vt 0.084495 0.519947
vt 0.458095 0.395717
vt 0.487754 0.410598
vt 0.462843 0.379661
vt 0.501702 0.390040
vt 0.535765 0.442851
vt 0.571316 0.415820
vt 0.244671 0.463642
vt 0.307780 0.418249
vt 0.184852 0.430878
vt 0.284786 0.388981
vt 0.347774 0.400994
vt 0.340717 0.372796
vt 0.364930 0.297609
vt 0.286186 0.284929
vt 0.231868 0.233115
vt 0.094269 0.114281
vt 0.295417 0.037626
vt 0.423130 0.244272
vt 0.519240 0.051884
vt 0.654311 0.132418
vt 0.712196 0.246430
vt 0.561993 0.296555
vt 0.512271 0.328199
vt 0.452905 0.323124
vt 0.409652 0.307630
vt 0.381264 0.316502
vt 0.401755 0.346786
vt 0.374970 0.339503
vt 0.508332 0.360401
vt 0.463628 0.361858
vt 0.704458 0.361118
vt 0.595724 0.360396
vt 0.166513 0.324677
vt 0.280018 0.337450
vt 0.027220 0.306487
vt 0.341948 0.339392
vt 0.120554 0.828754
vt 0.027221 0.842314
vt 0.050937 0.787739
vt 0.122081 0.767504
vt 0.192461 0.777894
vt 0.213887 0.815194
vt 0.188647 0.859273
vt 0.119028 0.890003
vt 0.050172 0.890109
vn 0.909300 0.158800 0.384600
vn 0.837400 -0.354200 0.416300
vn 0.902200 -0.427600 0.056300
vn 0.981400 0.182800 -0.058800
vn 0.747300 -0.664200 -0.014900
vn 0.906400 -0.422200 -0.010800
vn 0.616400 -0.781200 -0.098800
vn 0.900400 -0.350500 -0.257600
vn 0.769900 -0.188100 -0.609800
vn 0.863900 0.179400 -0.470500
vn 0.716200 0.283900 -0.637600
vn 0.844700 0.388300 -0.368200
vn 0.755500 0.580500 -0.303700
vn 0.833500 0.550600 -0.045700
vn 0.741200 0.662600 0.107300
vn 0.835300 0.519100 0.181100
vn 0.753300 0.460200 0.469900
vn -0.272400 -0.492900 -0.826300
vn 0.027500 -0.527300 -0.849200
vn 0.049000 -0.952500 -0.300500
vn -0.256900 -0.906800 -0.334200
vn 0.051700 -0.998700 0.000000
vn -0.160900 -0.985900 -0.045800
vn -0.503600 -0.854600 -0.126100
vn -0.841400 -0.451600 -0.296700
vn -0.718900 -0.273000 -0.639200
vn 0.366400 -0.872800 -0.322400
vn 0.341400 -0.464800 -0.816900
vn 0.276400 -0.960300 -0.037200
vn 0.277400 -0.960700 -0.001700
vn 0.242600 -0.969900 0.018700
vn 0.056200 -0.998400 0.000000
vn 0.053800 -0.998500 0.000000
vn 0.277100 0.928000 0.248800
vn 0.320600 0.946300 -0.041900
vn 0.362800 0.801800 -0.474800
vn 0.214400 0.832800 -0.510300
vn 0.023300 0.999700 -0.010400
vn -0.047200 0.953700 0.296900
vn 0.292500 0.810900 0.506800
vn 0.339500 0.513400 0.788100
vn 0.002700 0.843000 0.537800
vn 0.169500 0.478400 0.861600
vn 0.319500 0.044000 -0.946600
vn 0.276300 0.271700 -0.921800
vn -0.002000 -0.011500 -0.999900
vn -0.022300 0.249600 -0.968100
vn 0.323100 0.541700 -0.775900
vn -0.007700 0.495600 -0.868500
vn 0.374000 0.022600 0.927100
vn 0.398200 -0.631500 0.665300
vn 0.038500 -0.080000 0.996000
vn 0.039100 -0.722900 0.689800
vn 0.344600 -0.924800 0.161100
vn 0.056500 -0.986900 0.151200
vn -0.838000 -0.545100 0.025100
vn -0.763200 -0.482600 0.429500
vn -0.935100 -0.089200 0.343000
vn -0.866200 -0.020300 0.499300
vn -0.993700 0.106100 -0.035900
vn -0.990900 0.050200 -0.124900
vn -0.972000 0.194800 -0.130900
vn -0.958300 0.198600 -0.205500
vn -0.794300 0.315500 -0.519100
vn -0.864500 0.265700 -0.426600
vn -0.723400 0.242200 -0.646500
vn -0.860700 0.103800 -0.498300
vn -0.847200 -0.529100 -0.047800
vn -0.648300 -0.759800 -0.047700
vn -0.152100 -0.988300 -0.012300
vn -0.113300 -0.993500 0.008700
vn -0.305300 0.260600 -0.915900
vn -0.309500 0.020500 -0.950700
vn -0.139800 0.571200 -0.808800
vn -0.363200 0.412600 -0.835300
vn -0.330100 -0.192800 0.924000
vn -0.302000 -0.685200 0.662700
vn -0.098900 0.084300 0.991500
vn -0.207700 -0.966600 0.150400
vn -0.052700 0.851200 0.522200
vn -0.052500 0.851200 0.522200
vn -0.052600 0.851100 0.522300
vn -0.052700 0.851100 0.522300
vn -0.052800 0.851200 0.522200
vn -0.052900 0.851200 0.522200
vn -0.052800 0.851200 0.522100
vn -0.052700 0.851300 0.522100
vn -0.052600 0.851200 0.522200
vn -0.902800 -0.426300 0.056600
vn -0.837700 -0.353000 0.416500
vn -0.909000 0.160000 0.384900
vn -0.981100 0.184100 -0.058600
vn -0.907000 -0.420900 -0.010600
vn -0.748200 -0.663200 -0.014700
vn -0.901000 -0.349300 -0.257300
vn -0.617500 -0.780400 -0.098600
vn -0.863800 0.180600 -0.470300
vn -0.770300 -0.187000 -0.609600
vn -0.844300 0.389500 -0.367900
vn -0.716000 0.284900 -0.637300
vn -0.832700 0.551800 -0.045400
vn -0.754800 0.581500 -0.303400
vn -0.834500 0.520200 0.181300
vn -0.740300 0.663600 0.107500
vn -0.752500 0.461200 0.470100
vn -0.050400 -0.952400 -0.300500
vn -0.028400 -0.527200 -0.849200
vn 0.271500 -0.493300 -0.826400
vn 0.255600 -0.907100 -0.334300
vn 0.159600 -0.986100 -0.045800
vn -0.053000 -0.998600 0.000000
vn 0.840700 -0.452700 -0.297000
vn 0.502500 -0.855300 -0.126200
vn 0.718300 -0.273900 -0.639500
vn -0.367700 -0.872300 -0.322300
vn -0.277700 -0.959900 -0.037100
vn -0.342300 -0.464300 -0.816800
vn -0.278700 -0.960400 -0.001700
vn -0.243900 -0.969600 0.018800
vn -0.055100 -0.998500 0.000000
vn -0.057500 -0.998300 0.000000
vn -0.275800 0.928400 0.248900
vn -0.319300 0.946700 -0.041800
vn -0.361900 0.802300 -0.474700
vn -0.022000 0.999700 -0.010400
vn -0.213400 0.833100 -0.510300
vn 0.048600 0.953600 0.296900
vn -0.291200 0.811300 0.506900
vn -0.001400 0.843000 0.537800
vn -0.338600 0.513900 0.788200
vn -0.168600 0.478700 0.861600
vn -0.319700 0.044400 -0.946500
vn 0.001600 -0.011500 -0.999900
vn -0.276200 0.272100 -0.921800
vn 0.022400 0.249600 -0.968100
vn -0.322600 0.542200 -0.775800
vn 0.008100 0.495600 -0.868500
vn -0.373700 0.023200 0.927200
vn -0.038300 -0.079900 0.996100
vn -0.398900 -0.630900 0.665400
vn -0.039900 -0.722900 0.689800
vn -0.345800 -0.924300 0.161200
vn -0.057800 -0.986800 0.151200
vn 0.935100 -0.090500 0.342700
vn 0.762700 -0.483700 0.429300
vn 0.837300 -0.546200 0.024800
vn 0.993800 0.104800 -0.036100
vn 0.866300 -0.021500 0.499000
vn 0.990900 0.048800 -0.125100
vn 0.958500 0.197400 -0.205800
vn 0.972300 0.193500 -0.131100
vn 0.864700 0.264500 -0.426900
vn 0.794600 0.314500 -0.519300
vn 0.860700 0.102700 -0.498500
vn 0.723600 0.241200 -0.646700
vn 0.846500 -0.530200 -0.048000
vn 0.647300 -0.760700 -0.047900
vn 0.150800 -0.988500 -0.012300
vn 0.112000 -0.993700 0.008600
vn 0.305400 0.260200 -0.916000
vn 0.309300 0.020100 -0.950700
vn 0.140300 0.571000 -0.808800
vn 0.363500 0.412200 -0.835400
vn 0.330100 -0.193300 0.923900
vn 0.099300 0.084200 0.991500
vn 0.301300 -0.685600 0.662600
vn 0.206500 -0.966800 0.150300
vn 0.054000 0.851100 0.522200
vn 0.054000 0.851000 0.522300
vn 0.053900 0.851100 0.522200
vn 0.054200 0.851100 0.522100
vn 0.054100 0.851100 0.522200
vn 0.054000 0.851200 0.522100
vn 0.054100 0.851100 0.522100
vn 0.053800 0.851100 0.522200
usemtl Material
s 1
f 19/1/1 61/2/2 18/3/3
f 1/4/4 18/3/3 67/5/5
f 24/6/6 68/7/7 25/8/8
f 25/8/8 63/9/9 21/10/10
f 21/10/10 64/11/11 20/12/12
f 20/12/12 66/13/13 23/14/14
f 1/4/4 23/14/14 65/15/15
f 22/16/16 62/17/17 19/1/1
f 50/18/18 71/19/19 33/20/20
f 2/21/21 33/20/20 76/22/22
f 51/23/23 84/24/24 49/25/25
f 2/21/21 49/25/25 79/26/26
f 3/27/27 34/28/28 63/9/9
f 25/8/8 68/7/7 35/29/29
f 3/27/27 35/29/29 76/22/22
f 33/20/20 71/19/19 34/28/28
f 4/30/30 35/29/29 68/7/7
f 4/30/30 24/6/6 67/5/5
f 4/30/30 36/31/31 75/32/32
f 32/33/33 76/22/22 35/29/29
f 37/34/34 65/15/15 23/14/14
f 5/35/35 23/14/14 66/13/13
f 38/36/36 74/37/37 31/38/38
f 5/35/35 31/38/38 73/39/39
f 6/40/40 39/41/41 62/17/17
f 6/40/40 22/16/16 65/15/15
f 37/34/34 73/39/39 30/42/42
f 30/42/42 70/43/43 39/41/41
f 7/44/44 40/45/45 64/11/11
f 7/44/44 21/10/10 63/9/9
f 7/44/44 34/28/28 71/19/19
f 29/46/46 72/47/47 40/45/45
f 8/48/48 38/36/36 66/13/13
f 8/48/48 20/12/12 64/11/11
f 8/48/48 40/45/45 72/47/47
f 28/49/49 74/37/37 38/36/36
f 9/50/50 41/51/51 61/2/2
f 9/50/50 19/1/1 62/17/17
f 39/41/41 70/43/43 27/52/52
f 9/50/50 27/52/52 69/53/53
f 36/31/31 67/5/5 18/3/3
f 10/54/54 18/3/3 61/2/2
f 10/54/54 41/51/51 69/53/53
f 26/55/55 75/32/32 36/31/31
f 42/56/56 77/57/57 43/58/58
f 43/58/58 78/59/59 46/60/60
f 11/61/61 46/60/60 81/62/62
f 47/63/63 82/64/64 44/65/65
f 44/65/65 80/66/66 45/67/67
f 45/67/67 79/26/26 49/25/25
f 49/25/25 84/24/24 48/68/68
f 11/61/61 48/68/68 83/69/69
f 51/23/23 76/22/22 32/33/33
f 12/70/70 32/33/33 75/32/32
f 12/70/70 52/71/71 83/69/69
f 12/70/70 48/68/68 84/24/24
f 55/72/72 72/47/47 29/46/46
f 13/73/73 29/46/46 71/19/19
f 13/73/73 50/18/18 79/26/26
f 13/73/73 45/67/67 80/66/66
f 53/74/74 74/37/37 28/49/49
f 14/75/75 28/49/49 72/47/47
f 14/75/75 55/72/72 80/66/66
f 14/75/75 44/65/65 82/64/64
f 15/76/76 56/77/77 69/53/53
f 27/52/52 70/43/43 54/78/78
f 15/76/76 54/78/78 78/59/59
f 15/76/76 43/58/58 77/57/57
f 52/71/71 75/32/32 26/55/55
f 16/79/79 26/55/55 69/53/53
f 16/79/79 56/77/77 77/57/57
f 42/56/56 83/69/69 52/71/71
f 17/80/80 60/81/81 85/82/82
f 17/80/80 57/83/83 86/84/84
f 17/80/80 59/85/85 88/86/86
f 17/80/80 58/87/87 87/88/88
f 106/3/89 149/2/90 107/1/91
f 89/4/92 112/6/93 155/5/94
f 113/8/95 156/7/96 112/6/93
f 109/10/97 151/9/98 113/8/95
f 108/12/99 152/11/100 109/10/97
f 111/14/101 154/13/102 108/12/99
f 89/4/92 110/16/103 153/15/104
f 107/1/91 150/17/105 110/16/103
f 121/20/106 159/19/107 138/18/108
f 90/21/109 139/23/110 164/22/111
f 137/25/112 172/24/113 139/23/110
f 90/21/109 138/18/108 167/26/114
f 91/27/115 113/8/95 151/9/98
f 123/29/116 156/7/96 113/8/95
f 91/27/115 121/20/106 164/22/111
f 122/28/117 159/19/107 121/20/106
f 92/30/118 112/6/93 156/7/96
f 92/30/118 124/31/119 155/5/94
f 92/30/118 120/33/120 163/32/121
f 123/29/116 164/22/111 120/33/120
f 111/14/101 153/15/104 125/34/122
f 93/35/123 126/36/124 154/13/102
f 119/38/125 162/37/126 126/36/124
f 93/35/123 125/34/122 161/39/127
f 94/40/128 110/16/103 150/17/105
f 94/40/128 125/34/122 153/15/104
f 118/42/129 161/39/127 125/34/122
f 127/41/130 158/43/131 118/42/129
f 95/44/132 109/10/97 152/11/100
f 95/44/132 122/28/117 151/9/98
f 95/44/132 117/46/133 159/19/107
f 128/45/134 160/47/135 117/46/133
f 96/48/136 108/12/99 154/13/102
f 96/48/136 128/45/134 152/11/100
f 96/48/136 116/49/137 160/47/135
f 126/36/124 162/37/126 116/49/137
f 97/50/138 107/1/91 149/2/90
f 97/50/138 127/41/130 150/17/105
f 115/52/139 158/43/131 127/41/130
f 97/50/138 129/51/140 157/53/141
f 106/3/89 155/5/94 124/31/119
f 98/54/142 129/51/140 149/2/90
f 98/54/142 114/55/143 157/53/141
f 124/31/119 163/32/121 114/55/143
f 131/58/144 165/57/145 130/56/146
f 134/60/147 166/59/148 131/58/144
f 99/61/149 135/63/150 169/62/151
f 132/65/152 170/64/153 135/63/150
f 133/67/154 168/66/155 132/65/152
f 137/25/112 167/26/114 133/67/154
f 136/68/156 172/24/113 137/25/112
f 99/61/149 130/56/146 171/69/157
f 120/33/120 164/22/111 139/23/110
f 100/70/158 140/71/159 163/32/121
f 100/70/158 136/68/156 171/69/157
f 100/70/158 139/23/110 172/24/113
f 117/46/133 160/47/135 143/72/160
f 101/73/161 138/18/108 159/19/107
f 101/73/161 133/67/154 167/26/114
f 101/73/161 143/72/160 168/66/155
f 116/49/137 162/37/126 141/74/162
f 102/75/163 143/72/160 160/47/135
f 102/75/163 132/65/152 168/66/155
f 102/75/163 141/74/162 170/64/153
f 103/76/164 115/52/139 157/53/141
f 142/78/165 158/43/131 115/52/139
f 103/76/164 131/58/144 166/59/148
f 103/76/164 144/77/166 165/57/145
f 114/55/143 163/32/121 140/71/159
f 104/79/167 144/77/166 157/53/141
f 104/79/167 130/56/146 165/57/145
f 140/71/159 171/69/157 130/56/146
f 105/80/168 145/83/169 173/82/170
f 105/80/168 147/85/171 174/84/172
f 105/80/168 146/87/173 176/86/174
f 105/80/168 148/81/175 175/88/170
f 1/4/4 19/1/1 18/3/3
f 24/6/6 1/4/4 67/5/5
f 1/4/4 24/6/6 25/8/8
f 1/4/4 25/8/8 21/10/10
f 1/4/4 21/10/10 20/12/12
f 1/4/4 20/12/12 23/14/14
f 22/16/16 1/4/4 65/15/15
f 1/4/4 22/16/16 19/1/1
f 2/21/21 50/18/18 33/20/20
f 51/23/23 2/21/21 76/22/22
f 2/21/21 51/23/23 49/25/25
f 50/18/18 2/21/21 79/26/26
f 25/8/8 3/27/27 63/9/9
f 3/27/27 25/8/8 35/29/29
f 33/20/20 3/27/27 76/22/22
f 3/27/27 33/20/20 34/28/28
f 24/6/6 4/30/30 68/7/7
f 36/31/31 4/30/30 67/5/5
f 32/33/33 4/30/30 75/32/32
f 4/30/30 32/33/33 35/29/29
f 5/35/35 37/34/34 23/14/14
f 38/36/36 5/35/35 66/13/13
f 5/35/35 38/36/36 31/38/38
f 37/34/34 5/35/35 73/39/39
f 22/16/16 6/40/40 62/17/17
f 37/34/34 6/40/40 65/15/15
f 6/40/40 37/34/34 30/42/42
f 6/40/40 30/42/42 39/41/41
f 21/10/10 7/44/44 64/11/11
f 34/28/28 7/44/44 63/9/9
f 29/46/46 7/44/44 71/19/19
f 7/44/44 29/46/46 40/45/45
f 20/12/12 8/48/48 66/13/13
f 40/45/45 8/48/48 64/11/11
f 28/49/49 8/48/48 72/47/47
f 8/48/48 28/49/49 38/36/36
f 19/1/1 9/50/50 61/2/2
f 39/41/41 9/50/50 62/17/17
f 9/50/50 39/41/41 27/52/52
f 41/51/51 9/50/50 69/53/53
f 10/54/54 36/31/31 18/3/3
f 41/51/51 10/54/54 61/2/2
f 26/55/55 10/54/54 69/53/53
f 10/54/54 26/55/55 36/31/31
f 11/61/61 42/56/56 43/58/58
f 11/61/61 43/58/58 46/60/60
f 47/63/63 11/61/61 81/62/62
f 11/61/61 47/63/63 44/65/65
f 11/61/61 44/65/65 45/67/67
f 11/61/61 45/67/67 49/25/25
f 11/61/61 49/25/25 48/68/68
f 42/56/56 11/61/61 83/69/69
f 12/70/70 51/23/23 32/33/33
f 52/71/71 12/70/70 75/32/32
f 48/68/68 12/70/70 83/69/69
f 51/23/23 12/70/70 84/24/24
f 13/73/73 55/72/72 29/46/46
f 50/18/18 13/73/73 71/19/19
f 45/67/67 13/73/73 79/26/26
f 55/72/72 13/73/73 80/66/66
f 14/75/75 53/74/74 28/49/49
f 55/72/72 14/75/75 72/47/47
f 44/65/65 14/75/75 80/66/66
f 53/74/74 14/75/75 82/64/64
f 27/52/52 15/76/76 69/53/53
f 15/76/76 27/52/52 54/78/78
f 43/58/58 15/76/76 78/59/59
f 56/77/77 15/76/76 77/57/57
f 16/79/79 52/71/71 26/55/55
f 56/77/77 16/79/79 69/53/53
f 42/56/56 16/79/79 77/57/57
f 16/79/79 42/56/56 52/71/71
f 57/83/83 17/80/80 85/82/82
f 59/85/85 17/80/80 86/84/84
f 58/87/87 17/80/80 88/86/86
f 60/81/81 17/80/80 87/88/88
f 89/4/92 106/3/89 107/1/91
f 106/3/89 89/4/92 155/5/94
f 89/4/92 113/8/95 112/6/93
f 89/4/92 109/10/97 113/8/95
f 89/4/92 108/12/99 109/10/97
f 89/4/92 111/14/101 108/12/99
f 111/14/101 89/4/92 153/15/104
f 89/4/92 107/1/91 110/16/103
f 90/21/109 121/20/106 138/18/108
f 121/20/106 90/21/109 164/22/111
f 90/21/109 137/25/112 139/23/110
f 137/25/112 90/21/109 167/26/114
f 122/28/117 91/27/115 151/9/98
f 91/27/115 123/29/116 113/8/95
f 123/29/116 91/27/115 164/22/111
f 91/27/115 122/28/117 121/20/106
f 123/29/116 92/30/118 156/7/96
f 112/6/93 92/30/118 155/5/94
f 124/31/119 92/30/118 163/32/121
f 92/30/118 123/29/116 120/33/120
f 93/35/123 111/14/101 125/34/122
f 111/14/101 93/35/123 154/13/102
f 93/35/123 119/38/125 126/36/124
f 119/38/125 93/35/123 161/39/127
f 127/41/130 94/40/128 150/17/105
f 110/16/103 94/40/128 153/15/104
f 94/40/128 118/42/129 125/34/122
f 94/40/128 127/41/130 118/42/129
f 128/45/134 95/44/132 152/11/100
f 109/10/97 95/44/132 151/9/98
f 122/28/117 95/44/132 159/19/107
f 95/44/132 128/45/134 117/46/133
f 126/36/124 96/48/136 154/13/102
f 108/12/99 96/48/136 152/11/100
f 128/45/134 96/48/136 160/47/135
f 96/48/136 126/36/124 116/49/137
f 129/51/140 97/50/138 149/2/90
f 107/1/91 97/50/138 150/17/105
f 97/50/138 115/52/139 127/41/130
f 115/52/139 97/50/138 157/53/141
f 98/54/142 106/3/89 124/31/119
f 106/3/89 98/54/142 149/2/90
f 129/51/140 98/54/142 157/53/141
f 98/54/142 124/31/119 114/55/143
f 99/61/149 131/58/144 130/56/146
f 99/61/149 134/60/147 131/58/144
f 134/60/147 99/61/149 169/62/151
f 99/61/149 132/65/152 135/63/150
f 99/61/149 133/67/154 132/65/152
f 99/61/149 137/25/112 133/67/154
f 99/61/149 136/68/156 137/25/112
f 136/68/156 99/61/149 171/69/157
f 100/70/158 120/33/120 139/23/110
f 120/33/120 100/70/158 163/32/121
f 140/71/159 100/70/158 171/69/157
f 136/68/156 100/70/158 172/24/113
f 101/73/161 117/46/133 143/72/160
f 117/46/133 101/73/161 159/19/107
f 138/18/108 101/73/161 167/26/114
f 133/67/154 101/73/161 168/66/155
f 102/75/163 116/49/137 141/74/162
f 116/49/137 102/75/163 160/47/135
f 143/72/160 102/75/163 168/66/155
f 132/65/152 102/75/163 170/64/153
f 144/77/166 103/76/164 157/53/141
f 103/76/164 142/78/165 115/52/139
f 142/78/165 103/76/164 166/59/148
f 131/58/144 103/76/164 165/57/145
f 104/79/167 114/55/143 140/71/159
f 114/55/143 104/79/167 157/53/141
f 144/77/166 104/79/167 165/57/145
f 104/79/167 140/71/159 130/56/146
f 148/81/175 105/80/168 173/82/170
f 145/83/169 105/80/168 174/84/172
f 147/85/171 105/80/168 176/86/174
f 146/87/173 105/80/168 175/88/170
o NurbsCurve
v -4.853273 -0.138778 64.835014
v -4.816958 -0.138778 64.821136
v -4.779489 -0.138778 64.808075
v -4.740935 -0.138778 64.795830
v -4.701366 -0.138778 64.784401
v -4.660853 -0.138778 64.773796
v -4.619466 -0.138778 64.764000
v -4.577273 -0.138778 64.755020
v -4.534347 -0.138778 64.746857
v -4.490755 -0.138778 64.739510
v -4.446568 -0.138778 64.732979
v -4.401857 -0.138778 64.727264
v -4.356691 -0.138778 64.722366
v -4.311140 -0.138778 64.718285
v -4.265275 -0.138778 64.715019
v -4.219163 -0.138778 64.712570
v -4.172878 -0.138778 64.710938
v -4.126487 -0.138778 64.710121
v -4.080062 -0.138778 64.710121
v -4.033671 -0.138778 64.710938
v -3.987386 -0.138778 64.712570
v -3.941275 -0.138778 64.715019
v -3.895409 -0.138778 64.718285
v -3.849858 -0.138778 64.722366
v -3.804692 -0.138778 64.727264
v -3.759981 -0.138778 64.732979
v -3.715794 -0.138778 64.739510
v -3.672203 -0.138778 64.746857
v -3.629276 -0.138778 64.755020
v -3.587083 -0.138778 64.763992
v -3.545695 -0.138778 64.773788
v -3.505182 -0.138778 64.784401
v -3.465614 -0.138778 64.795830
v -3.427060 -0.138778 64.808075
v -3.389591 -0.138778 64.821136
v -3.353276 -0.138778 64.835014
l 177 178
l 178 179
l 179 180
l 180 181
l 181 182
l 182 183
l 183 184
l 184 185
l 185 186
l 186 187
l 187 188
l 188 189
l 189 190
l 190 191
l 191 192
l 192 193
l 193 194
l 194 195
l 195 196
l 196 197
l 197 198
l 198 199
l 199 200
l 200 201
l 201 202
l 202 203
l 203 204
l 204 205
l 205 206
l 206 207
l 207 208
l 208 209
l 209 210
l 210 211
l 211 212
