# Blender v2.73 (sub 0) OBJ File: 'projekt.blend'
# www.blender.org
mtllib podstawa.mtl
o mlyn_podstawa_Plane.001
v -14.969769 4.469236 -11.811307
v -14.969769 4.469236 -13.811306
v -10.939836 4.469236 -13.811308
v -10.939836 4.469236 -11.811308
v -14.969769 4.849433 -11.811307
v -14.969769 4.849433 -13.811306
v -10.939836 4.849433 -13.811308
v -10.939836 4.849433 -11.811308
v -14.969769 4.172854 -11.578297
v -14.969769 4.172854 -13.578297
v -10.939836 4.172854 -13.578297
v -10.939836 4.172854 -11.578297
v -14.969769 4.553051 -11.578297
v -14.969769 4.553051 -13.578297
v -10.939836 4.553051 -13.578297
v -10.939836 4.553051 -11.578297
v -14.969769 3.811350 -11.288290
v -14.969769 3.811350 -13.288290
v -10.939836 3.811350 -13.288290
v -10.939836 3.811350 -11.288290
v -14.969769 4.191547 -11.288290
v -14.969769 4.191547 -13.288290
v -10.939836 4.191547 -13.288290
v -10.939836 4.191547 -11.288290
v -14.969769 3.445600 -11.036360
v -14.969769 3.445600 -13.036360
v -10.939836 3.445600 -13.036360
v -10.939836 3.445600 -11.036360
v -14.969769 3.825798 -11.036360
v -14.969769 3.825798 -13.036360
v -10.939836 3.825798 -13.036360
v -10.939836 3.825798 -11.036360
v -14.969769 3.166538 -10.743421
v -14.969769 3.166538 -12.743421
v -10.939836 3.166538 -12.743422
v -10.939836 3.166538 -10.743422
v -14.969769 3.546736 -10.743421
v -14.969769 3.546736 -12.743421
v -10.939836 3.546736 -12.743422
v -10.939836 3.546736 -10.743422
v -14.969769 2.822111 -10.555089
v -14.969769 2.822111 -12.555088
v -10.939836 2.822112 -12.555090
v -10.939836 2.822112 -10.555090
v -14.969769 3.202309 -10.555089
v -14.969769 3.202309 -12.555088
v -10.939836 3.202309 -12.555090
v -10.939836 3.202309 -10.555090
v -14.969769 2.525729 -10.322079
v -14.969769 2.525729 -12.322079
v -10.939836 2.525729 -12.322079
v -10.939836 2.525729 -10.322079
v -14.969769 2.905927 -10.322079
v -14.969769 2.905927 -12.322079
v -10.939836 2.905927 -12.322079
v -10.939836 2.905927 -10.322079
v -14.969769 2.164225 -10.032072
v -14.969769 2.164225 -12.032072
v -10.939836 2.164225 -12.032072
v -10.939836 2.164225 -10.032072
v -14.969769 2.544422 -10.032072
v -14.969769 2.544422 -12.032072
v -10.939836 2.544422 -12.032072
v -10.939836 2.544422 -10.032072
v -14.969769 1.798476 -9.780142
v -14.969769 1.798476 -11.780142
v -10.939836 1.798476 -11.780142
v -10.939836 1.798476 -9.780142
v -14.969769 2.178673 -9.780142
v -14.969769 2.178673 -11.780142
v -10.939836 2.178673 -11.780142
v -10.939836 2.178673 -9.780142
v -14.969769 1.519414 -9.487203
v -14.969769 1.519414 -11.487203
v -10.939836 1.519414 -11.487204
v -10.939836 1.519414 -9.487204
v -14.969769 1.899611 -9.487203
v -14.969769 1.899611 -11.487203
v -10.939836 1.899611 -11.487204
v -10.939836 1.899611 -9.487204
v -14.969769 1.174288 -9.214214
v -14.969769 1.174288 -11.214214
v -10.939836 1.174288 -11.214214
v -10.939836 1.174288 -9.214214
v -14.969769 1.554485 -9.214214
v -14.969769 1.554485 -11.214214
v -10.939836 1.554485 -11.214214
v -10.939836 1.554485 -9.214214
v -14.969770 0.877906 -8.981204
v -14.969770 0.877906 -10.981205
v -10.939837 0.877906 -10.981205
v -10.939837 0.877906 -8.981204
v -14.969770 1.258103 -8.981204
v -14.969770 1.258103 -10.981205
v -10.939837 1.258103 -10.981205
v -10.939837 1.258103 -8.981204
v -14.969769 0.516401 -8.691197
v -14.969769 0.516401 -10.691197
v -10.939836 0.516401 -10.691197
v -10.939836 0.516401 -8.691197
v -14.969769 0.896599 -8.691197
v -14.969769 0.896599 -10.691197
v -10.939836 0.896599 -10.691197
v -10.939836 0.896599 -8.691197
v -14.969769 0.150652 -8.439267
v -14.969769 0.150652 -10.439267
v -10.939836 0.150652 -10.439268
v -10.939836 0.150652 -8.439267
v -14.969769 0.530849 -8.439267
v -14.969769 0.530849 -10.439267
v -10.939836 0.530849 -10.439268
v -10.939836 0.530849 -8.439267
v -14.969769 -0.128410 -8.146328
v -14.969769 -0.128410 -10.146328
v -10.939836 -0.128410 -10.146328
v -10.939836 -0.128410 -8.146328
v -14.969769 0.251787 -8.146328
v -14.969769 0.251787 -10.146328
v -10.939836 0.251787 -10.146328
v -10.939836 0.251787 -8.146328
v -21.770462 -0.118493 -8.188379
v -4.139144 -0.118493 -8.188379
v -21.770462 -0.118493 -28.188379
v -4.139144 -0.118493 -28.188379
v -21.770462 -0.118493 -8.188379
v -4.139144 -0.118493 -8.188379
v -21.770462 -0.118493 -28.188379
v -4.139144 -0.118493 -28.188379
v -18.515530 4.719547 -12.106917
v -7.394075 4.719547 -12.106917
v -18.515530 4.719547 -24.269840
v -7.394075 4.719547 -24.269840
vt 0.400413 0.893804
vt 0.400413 1.000000
vt 0.343869 1.000000
vt 0.666336 0.383059
vt 0.558847 0.383059
vt 0.558847 0.255372
vt 1.000000 0.424786
vt 1.000000 0.530982
vt 0.943456 0.530982
vt 0.451358 0.766117
vt 0.343869 0.766117
vt 0.343869 0.638431
vt 0.683132 0.766117
vt 0.683132 0.893804
vt 0.626588 0.893804
vt 0.570044 0.766117
vt 0.570044 0.893804
vt 0.513500 0.893804
vt 0.943456 0.637179
vt 0.886912 0.637179
vt 0.451358 0.383059
vt 0.451358 0.255372
vt 0.683132 0.978510
vt 0.683132 0.872314
vt 0.739675 0.872314
vt 0.451358 0.127686
vt 0.343869 0.127686
vt 0.343869 0.000000
vt 0.456956 0.766117
vt 0.456956 0.893804
vt 0.830369 0.127686
vt 0.830369 0.000000
vt 0.886912 0.000000
vt 0.339263 0.863122
vt 0.339263 0.969319
vt 0.282719 0.969319
vt 0.666336 0.510745
vt 0.558847 0.510745
vt 0.943456 0.106197
vt 0.943456 0.212393
vt 0.886912 0.212393
vt 0.773825 0.638431
vt 0.666336 0.638431
vt 0.677533 0.766117
vt 0.677533 0.638431
vt 0.734077 0.638431
vt 0.903708 0.638431
vt 0.903708 0.766117
vt 0.847164 0.766117
vt 0.739675 0.766117
vt 0.343869 0.383059
vt 0.343869 0.255372
vt 0.909307 0.766117
vt 0.909307 0.872314
vt 0.852763 0.872314
vt 0.214978 0.480063
vt 0.107489 0.480063
vt 0.107489 0.352377
vt 0.830369 0.383059
vt 0.830369 0.255372
vt 0.886912 0.255372
vt 0.773825 0.255372
vt 0.773825 0.127686
vt 0.056544 0.863122
vt 0.056544 0.969319
vt 0.000000 0.969319
vt 0.943456 0.318589
vt 0.886912 0.318589
vt 0.000000 0.480063
vt 0.000000 0.352377
vt 0.830369 0.510745
vt 0.886912 0.383059
vt 0.886912 0.510745
vt 0.886912 0.638431
vt 0.830368 0.638431
vt 0.226175 0.863122
vt 0.226175 0.969319
vt 0.169631 0.969319
vt 0.322467 0.480063
vt 0.322467 0.607750
vt 1.000000 0.637179
vt 0.322467 0.735436
vt 0.214978 0.735436
vt 0.214978 0.607750
vt 0.226175 0.735436
vt 0.282719 0.735436
vt 0.626588 0.766117
vt 0.960252 0.638431
vt 0.960252 0.744628
vt 0.903708 0.744628
vt 0.214978 0.352377
vt 0.965851 0.766118
vt 0.965851 0.872314
vt 0.666336 0.255373
vt 0.666336 0.127686
vt 0.056544 0.735436
vt 0.113088 0.735436
vt 0.773825 0.510745
vt 0.773825 0.383059
vt 1.000000 0.106197
vt 1.000000 0.212393
vt 0.852763 0.978510
vt 0.796219 0.978510
vt 0.558847 0.127686
vt 0.558847 0.000000
vt 0.886912 0.127686
vt 0.852763 0.766117
vt 0.796219 0.872314
vt 0.113088 0.863122
vt 0.773825 0.000000
vt 0.339263 0.735436
vt 0.282719 0.863122
vt 0.169631 0.863122
vt 0.113088 0.969319
vt 0.965851 0.978510
vt 0.909307 0.978510
vt 0.666336 0.000000
vt 0.790621 0.638431
vt 0.790620 0.766117
vt 0.734077 0.766117
vt 0.451358 0.510745
vt 1.000000 0.318589
vt 0.400413 0.766117
vt 0.343869 0.893804
vt 0.847164 0.638431
vt 0.796219 0.766117
vt 0.451358 0.000000
vt 0.886912 0.106197
vt 0.943456 0.000000
vt 0.451358 0.638431
vt 0.343869 0.510745
vt 0.564445 0.638431
vt 0.564445 0.766117
vt 0.507902 0.766117
vt 0.507902 0.638431
vt 0.943456 0.424786
vt 0.107489 0.607750
vt 0.739675 0.978510
vt 0.000000 0.607750
vt 0.107489 0.735436
vt 0.169631 0.735436
vt 0.000000 0.863122
vt 0.886912 0.424786
vt 0.558847 0.638431
vt 0.886912 0.530982
vt 0.620989 0.766117
vt 0.620989 0.638431
vt 1.000000 0.000000
vt 0.513500 0.766117
vt 1.000000 1.000000
vt 0.000000 1.000000
vt 0.000000 0.000000
vt 0.343869 0.352377
vt 0.322467 0.352377
vt 0.000000 0.735436
vn -1.000000 0.000000 0.000000
vn -0.000000 0.000000 -1.000000
vn 1.000000 0.000000 0.000000
vn 0.000000 0.000000 1.000000
vn 0.000000 -1.000000 0.000000
vn 0.000000 1.000000 0.000000
vn 0.000000 0.629400 -0.777100
vn 0.829700 0.558200 0.000000
vn 0.000000 0.629400 0.777100
vn -0.829700 0.558200 0.000000
usemtl Material
s off
f 6/1/1 2/2/1 1/3/1
f 7/4/2 3/5/2 2/6/2
f 8/7/3 4/8/3 3/9/3
f 5/10/4 1/11/4 4/12/4
f 2/13/5 3/14/5 4/15/5
f 7/16/6 6/17/6 5/18/6
f 14/9/1 10/19/1 9/20/1
f 15/5/2 11/21/2 10/22/2
f 16/23/3 12/24/3 11/25/3
f 13/26/4 9/27/4 12/28/4
f 10/29/5 11/30/5 12/1/5
f 15/31/6 14/32/6 13/33/6
f 22/34/1 18/35/1 17/36/1
f 23/37/2 19/38/2 18/5/2
f 24/39/3 20/40/3 19/41/3
f 21/42/4 17/43/4 20/37/4
f 18/44/5 19/45/5 20/46/5
f 23/47/6 22/48/6 21/49/6
f 30/50/1 26/25/1 25/24/1
f 31/21/2 27/51/2 26/52/2
f 32/53/3 28/54/3 27/55/3
f 29/56/4 25/57/4 28/58/4
f 26/59/5 27/60/5 28/61/5
f 31/62/6 30/63/6 29/31/6
f 38/64/1 34/65/1 33/66/1
f 39/27/2 35/26/2 34/22/2
f 40/40/3 36/67/3 35/68/3
f 37/57/4 33/69/4 36/70/4
f 34/71/5 35/59/5 36/72/5
f 39/73/6 38/74/6 37/75/6
f 46/76/1 42/77/1 41/78/1
f 47/56/2 43/79/2 42/80/2
f 48/8/3 44/81/3 43/19/3
f 45/82/4 41/83/4 44/84/4
f 42/76/5 43/85/5 44/86/5
f 47/17/6 46/16/6 45/87/6
f 54/88/1 50/89/1 49/90/1
f 55/79/2 51/56/2 50/91/2
f 56/92/3 52/93/3 51/54/3
f 53/62/4 49/94/4 52/95/4
f 50/64/5 51/96/5 52/97/5
f 55/98/6 54/99/6 53/59/6
f 62/100/1 58/101/1 57/40/1
f 63/6/2 59/22/2 58/26/2
f 64/55/3 60/102/3 59/103/3
f 61/95/4 57/104/4 60/105/4
f 58/42/5 59/98/5 60/71/5
f 63/106/6 62/61/6 61/60/6
f 70/107/1 66/55/1 65/108/1
f 71/99/2 67/4/2 66/94/2
f 72/65/3 68/64/3 67/109/3
f 69/94/4 65/6/4 68/104/4
f 66/63/5 67/110/5 68/32/5
f 71/111/6 70/34/6 69/112/6
f 78/113/1 74/78/1 73/114/1
f 79/98/2 75/37/2 74/4/2
f 80/93/3 76/115/3 75/116/3
f 77/117/4 73/110/4 76/63/4
f 74/99/5 75/62/5 76/60/5
f 79/118/6 78/119/6 77/120/6
f 86/54/1 82/116/1 81/102/1
f 87/51/2 83/21/2 82/121/2
f 88/101/3 84/122/3 83/67/3
f 85/38/4 81/121/4 84/21/4
f 82/123/5 83/1/5 84/124/5
f 87/125/6 86/49/6 85/119/6
f 94/126/1 90/108/1 89/25/1
f 95/127/2 91/105/2 90/104/2
f 96/128/3 92/33/3 91/129/3
f 93/130/4 89/12/4 92/131/4
f 90/132/5 91/133/5 92/134/5
f 95/135/6 94/134/6 93/10/6
f 102/122/1 98/7/1 97/136/1
f 103/137/2 99/84/2 98/83/2
f 104/138/3 100/25/3 99/108/3
f 101/139/4 97/137/4 100/140/4
f 98/113/5 99/141/5 100/85/5
f 103/96/6 102/64/6 101/142/6
f 110/67/1 106/136/1 105/143/1
f 111/121/2 107/38/2 106/144/2
f 112/145/3 108/143/3 107/136/3
f 109/84/4 105/137/4 108/57/4
f 106/45/5 107/44/5 108/146/5
f 111/133/6 110/132/6 109/147/6
f 118/148/1 114/100/1 113/39/1
f 119/69/2 115/57/2 114/137/2
f 120/112/3 116/36/3 115/77/3
f 117/38/4 113/37/4 116/43/4
f 114/149/5 115/18/5 116/30/5
f 119/141/6 118/113/6 117/109/6
f 123/148/5 124/150/5 122/151/5
f 127/148/7 131/150/7 132/151/7
f 124/152/4 123/148/4 127/150/4
f 122/152/4 124/148/4 128/150/4
f 121/152/4 122/148/4 126/150/4
f 123/152/4 121/148/4 125/150/4
f 130/153/6 132/70/6 131/152/6
f 128/148/8 132/150/8 130/151/8
f 126/148/9 130/150/9 129/151/9
f 125/148/10 129/150/10 131/151/10
f 5/124/1 6/1/1 1/3/1
f 6/94/2 7/4/2 2/6/2
f 7/136/3 8/7/3 3/9/3
f 8/130/4 5/10/4 4/12/4
f 1/87/5 2/13/5 4/15/5
f 8/149/6 7/16/6 5/18/6
f 13/145/1 14/9/1 9/20/1
f 14/6/2 15/5/2 10/22/2
f 15/138/3 16/23/3 11/25/3
f 16/127/4 13/26/4 12/28/4
f 9/123/5 10/29/5 12/1/5
f 16/106/6 15/31/6 13/33/6
f 21/112/1 22/34/1 17/36/1
f 22/4/2 23/37/2 18/5/2
f 23/128/3 24/39/3 19/41/3
f 24/98/4 21/42/4 20/37/4
f 17/120/5 18/44/5 20/46/5
f 24/125/6 23/47/6 21/49/6
f 29/13/1 30/50/1 25/24/1
f 30/22/2 31/21/2 26/52/2
f 31/107/3 32/53/3 27/55/3
f 32/91/4 29/56/4 28/58/4
f 25/72/5 26/59/5 28/61/5
f 32/60/6 31/62/6 29/31/6
f 37/142/1 38/64/1 33/66/1
f 38/52/2 39/27/2 34/22/2
f 39/41/3 40/40/3 35/68/3
f 40/58/4 37/57/4 36/70/4
f 33/73/5 34/71/5 36/72/5
f 40/71/6 39/73/6 37/75/6
f 45/113/1 46/76/1 41/78/1
f 46/84/2 47/56/2 42/80/2
f 47/9/3 48/8/3 43/19/3
f 48/80/4 45/82/4 44/84/4
f 41/112/5 42/76/5 44/86/5
f 48/15/6 47/17/6 45/87/6
f 53/47/1 54/88/1 49/90/1
f 54/154/2 55/79/2 50/91/2
f 55/53/3 56/92/3 51/54/3
f 56/63/4 53/62/4 52/95/4
f 49/109/5 50/64/5 52/97/5
f 56/71/6 55/98/6 53/59/6
f 61/39/1 62/100/1 57/40/1
f 62/104/2 63/6/2 58/26/2
f 63/108/3 64/55/3 59/103/3
f 64/117/4 61/95/4 60/105/4
f 57/75/5 58/42/5 60/71/5
f 64/31/6 63/106/6 61/60/6
f 69/126/1 70/107/1 65/108/1
f 70/62/2 71/99/2 66/94/2
f 71/114/3 72/65/3 67/109/3
f 72/95/4 69/94/4 68/104/4
f 65/31/5 66/63/5 68/32/5
f 72/86/6 71/111/6 69/112/6
f 77/109/1 78/113/1 73/114/1
f 78/99/2 79/98/2 74/4/2
f 79/54/3 80/93/3 75/116/3
f 80/95/4 77/117/4 76/63/4
f 73/59/5 74/99/5 76/60/5
f 80/46/6 79/118/6 77/120/6
f 85/55/1 86/54/1 81/102/1
f 86/131/2 87/51/2 82/121/2
f 87/40/3 88/101/3 83/67/3
f 88/5/4 85/38/4 84/21/4
f 81/11/5 82/123/5 84/124/5
f 88/118/6 87/125/6 85/119/6
f 93/50/1 94/126/1 89/25/1
f 94/26/2 95/127/2 90/104/2
f 95/39/3 96/128/3 91/129/3
f 96/121/4 93/130/4 92/131/4
f 89/135/5 90/132/5 92/134/5
f 96/130/6 95/135/6 93/10/6
f 101/67/1 102/122/1 97/136/1
f 102/140/2 103/137/2 98/83/2
f 103/103/3 104/138/3 99/108/3
f 104/155/4 101/139/4 100/140/4
f 97/76/5 98/113/5 100/85/5
f 104/155/6 103/96/6 101/142/6
f 109/68/1 110/67/1 105/143/1
f 110/130/2 111/121/2 106/144/2
f 111/9/3 112/145/3 107/136/3
f 112/56/4 109/84/4 108/57/4
f 105/147/5 106/45/5 108/146/5
f 112/146/6 111/133/6 109/147/6
f 117/129/1 118/148/1 113/39/1
f 118/139/2 119/69/2 114/137/2
f 119/76/3 120/112/3 115/77/3
f 120/144/4 117/38/4 116/43/4
f 113/29/5 114/149/5 116/30/5
f 120/97/6 119/141/6 117/109/6
f 121/152/5 123/148/5 122/151/5
f 128/152/7 127/148/7 132/151/7
f 128/151/4 124/152/4 127/150/4
f 126/151/4 122/152/4 128/150/4
f 125/151/4 121/152/4 126/150/4
f 127/151/4 123/152/4 125/150/4
f 129/28/6 130/153/6 131/152/6
f 126/152/8 128/148/8 130/151/8
f 125/152/9 126/148/9 129/151/9
f 127/152/10 125/148/10 131/151/10
